<?xml version="1.0" encoding="utf-8"?>
<!-- Generator: Adobe Illustrator 25.0.1, SVG Export Plug-In . SVG Version: 6.00 Build 0)  -->
<svg version="1.1" id="Layer_1" xmlns="http://www.w3.org/2000/svg" xmlns:xlink="http://www.w3.org/1999/xlink" x="0px" y="0px"
	 viewBox="0 0 472.2 171.6" style="enable-background:new 0 0 472.2 171.6;" xml:space="preserve">
<style type="text/css">
	.st0{fill:#009E6B;}
	.st1{fill:#678CC8;}
	.st2{fill:#F9B9B8;}
</style>
<path class="st0" d="M371.7,68.5c37.9,0.7,56.7,0,70.3,0.1c4.2,0.1,8.4,0.7,12.5,1.8c10.6,2.9,17.9,12.7,17.7,23.7
	c-0.2,7-2.4,12.8-7.3,17.5c-4.2,4.1-9.5,5.3-15.2,5.6c-1.9,0.1-3.8,0-5.7,0c-2.6,0-3.1,0.5-3.3,3.2c-0.1,1.2-0.1,2.4-0.1,3.6
	c0,3,0,6,0,9c0,1.3,0.2,2.6,0.5,3.9c0.3,1.5,1.6,2.7,3.1,2.8l1.2,0.2c1.6,0.3,3.9-0.2,4.4,1.9c0.5,2.3,0.6,4.7,0.4,7.1
	c0,0.6-1.2,1.4-1.9,1.6c-4.9,1.1-9.8,1.3-14.5-0.7c-5-2.1-7-6.5-7.2-11.6c-0.2-4.9-0.1-9.8-0.2-14.8c0-0.9,0-1.8,0-2.7
	c-0.1-3.2-0.3-3.4-3.4-3.5s-3.6-0.5-3.6-3.7c0-1.4-0.1-2.8,0-4.2c0.2-2.3,0.9-3,3.2-3.1c0.3,0,0.6,0,0.9,0c2.3-0.1,2.5-0.3,2.7-2.7
	c0.2-2,0.2-4,0.3-6c-0.1-1.3,0.8-2.4,2.1-2.5c0.1,0,0.2,0,0.3,0c2.8-0.1,5.6-0.4,8.4-0.3c2.6,0,3.2,0.9,3.3,3.6c0,1.6-0.1,3.2,0,4.8
	c0.2,2.5,0.7,2.9,3.1,3c1.4,0,2.8-0.1,4.2,0c3.5,0.1,6-1.5,7.9-4.2c2.6-3.5,2.8-7.5,1.6-11.5c-0.5-1.7-1.6-3.3-2.9-4.4
	c-1.7-1.4-3.6-1.9-9.1-2.4c-1.2-0.1-3.7-0.5-6.9-0.5H437c-22.4,0.2-67.5,0-103.4,0c-11.5,0-22.9-0.1-34.4,0.1
	c-3.6,0-6.7-2.7-7.2-6.4c-0.2-1.6,0.1-3.2,0.9-4.6c1.1-1.8,3-3,5.2-3.1h0.2C322.8,69.5,347.3,68.1,371.7,68.5z"/>
<path class="st0" d="M14.9,108.6c0.2,0,0.3-0.2,0.8-1.1c0.3-0.5,0.7-1,1-1.5c4.1-5.8,8.8-11.2,14.1-16c5.5-4.8,11.6-8.7,18.2-11.9
	c8.8-4.2,18.2-7.1,27.9-8.3c6.2-0.8,12.5-1.2,18.7-1.2c32.4,0,54.5,0.2,74.2-0.2c1.2,0,2.4,0,3.5,0c14.7,0,17.9-0.6,20.6,1.8
	c0.3,0.3,2.8,2.6,2.6,5.8c-0.3,2.7-2,4.9-4.6,5.8c-0.9,0.2-1.7,0.2-2.6,0.2c-3.8,0-5.7,0.1-6,0.1c-5.9-0.2-53.5,0.1-59.3,0.1
	c-45.1,0.3-58.6,2.7-69.3,8.2c-5.3,2.8-10.3,6.1-15,9.8c-6.6,5.5-12.2,11.9-16.8,19.1c-2.3,3.6-3.4,5.4-4.2,7.6
	c-1.9,5.1-4,15.8-3.9,20c0.1,0.9-0.2,1.9-0.8,2.6c-0.5,0.5-1.2,0.7-1.9,0.7c-3,0.2-6,0.2-9,0c-1.9-0.1-2.9-1.5-2.9-3.5
	c0.1-6.5,0-13.1,0-19.6c0-4.7,0-9.5,0-14.2c0-1.2,0.1-2.4,0.2-3.6c0.3-2,0.8-2.6,2.9-2.8s4.4-0.1,6.6-0.2c0.9-0.1,1.7,0,2.5,0.4l0,0
	c0.1,0.1,0.2,0.2,0.3,0.3C13.4,107.8,14.3,108.7,14.9,108.6z"/>
<path class="st0" d="M184.9,147.6c-1.7,0.5-1.6,1.8-1.6,3c0,5,0,10.1,0,15.1c0,0.8,0,1.6,0,2.4c-0.3,2.3-1.2,3.3-3.5,3.4
	c-2.6,0.1-5.2,0.1-7.8,0c-2.4-0.1-2.9-0.7-3.1-3.2c-0.1-2.2-0.3-4.4-0.3-6.6c0-15.5,0-30.9,0-46.4c0-2,0.1-4,0.2-6
	c-0.1-1.5,1-2.7,2.5-2.8c0,0,0.1,0,0.1,0c3-0.2,6-0.2,9-0.2c0.5,0,0.9,0.1,1.3,0.4c0.4,0.4,0.6,0.9,0.7,1.4c0.2,0.6,0.2,0.7,0.4,0.9
	c0.3,0.4,0.8,0.6,1.4,0.5c0.2-0.1,0.4-0.2,0.6-0.3c0.4-0.3,0.7-0.5,0.7-0.5c1.5-1,3.1-1.7,4.8-2.2c3.8-1.1,7.9-1.3,11.7-0.5
	c2,0.6,3.8,1.4,5.6,2.5c2.4,1.5,4.5,3.5,6.2,5.8c2.9,4.2,4.3,9.3,4,14.4c-0.2,5-1.7,9.8-4.5,13.9c-5.8,9-17.8,11.6-26.9,5.8
	c0,0-0.1-0.1-0.1-0.1C185.9,148.1,185.4,147.9,184.9,147.6z M205.3,126c-0.2-2.6-1.4-5-3.3-6.8c-2.3-1.8-5.2-2.6-8.1-2.1
	c-1.7,0.3-3.2,0.9-4.6,1.9c-2.2,1.7-3.7,4.1-4.3,6.8c-1,4.7,1,9.5,5,12.1c4.8,3.1,11.3,0.4,14-3.7C206.1,131,205.5,127.3,205.3,126z
	"/>
<path class="st0" d="M285.3,130.6c0-14.4,7.8-23.4,19.5-25.4c4.6-0.8,9.3-0.5,13.7,0.9c8.8,2.7,15.1,10.5,15.7,19.7
	c0.7,10.5-4.1,19.2-13.1,23.4c-7.3,3.5-15.8,3.5-23-0.2C289.5,144.8,285.5,137.5,285.3,130.6z M311.2,138.7c3-0.4,5.7-2.1,7.5-4.6
	c0.9-1.5,1.4-3.3,1.5-5.1c0.1-1.9-0.2-3.9-1-5.6c-1.8-4.7-6.8-7.3-11.7-6.1c-4.6,1-7.6,4.9-8,10.3c-0.2,2.6,0.6,5.2,2.1,7.3
	C305,139.3,310.9,138.7,311.2,138.7z"/>
<path class="st0" d="M74.3,132.4c-4.2,0-8.4,0-12.7,0c-2.3,0-3,1-1.6,3c3.5,5.3,10.6,6.8,16,3.3c0.2-0.1,0.3-0.2,0.4-0.3
	c3.1-2.1,3.1-2.1,6.3,0c1,0.7,2.1,1.2,3.1,1.9c2.1,1.6,2.3,3.3,0.5,5.3c-2.2,2.3-4.9,3.9-7.9,4.8c-6,2-12.4,1.9-18.3-0.1
	c-9.2-3.1-15.4-10.8-15.1-22.3c0.5-19.8,19-26.5,32-21.8c8.2,3,12.2,9.4,13.6,17.7c0.2,1.5,0.4,3,0.4,4.5c0.1,3-0.6,3.8-3.6,3.9
	c-2.4,0.1-4.8,0-7.2,0L74.3,132.4z M68.2,123.2L68.2,123.2c2,0,4,0,6,0c2.9-0.1,3.6-1.1,2.3-3.8c-1.2-2.7-3.9-4.5-6.9-4.5
	c-4-0.2-7.3,1.1-9.5,4.6c-1.4,2.3-0.7,3.5,2.1,3.6C64.2,123.3,66.2,123.2,68.2,123.2z"/>
<path class="st0" d="M386.1,146.5c-0.6-0.5-2.2,1.4-4.6,2.7c-2.8,1.4-6,2.1-9.2,2c-1.7,0.1-3.4,0-5.1-0.4c-2.1-0.6-4.1-1.7-5.7-3.2
	c-2.2-2.1-3.7-4.8-4.3-7.8c-0.5-2.3-0.8-4.6-0.8-6.9c-0.1-7.3,0-14.7,0-22c0-0.5,0-1,0-1.5c0.2-2.3,0.9-3.1,3.2-3.2
	c2.7-0.1,5.4-0.1,8.1,0c2.2,0.1,3,0.9,3.1,3.2c0.1,3.3,0.1,6.6,0.2,9.9s0,6.8,0,10.2c0,1.4,0.2,2.8,0.4,4.2c0.6,3.4,2.2,5,4.8,5.4
	c3.5,0.5,5.9-0.6,7.6-3.6c1.1-2.2,1.6-4.6,1.5-7c0-5.6,0-11.2,0-16.9c0-1,0.1-2,0.1-3c0-1.3,1-2.3,2.2-2.3c0,0,0,0,0.1,0
	c3.1-0.2,6.2-0.3,9.3-0.3c1.5,0,2.3,1.1,2.6,2.5c0.2,0.9,0.2,1.8,0.2,2.7c0,11.3,0,22.7,0,34c0,4.1-0.9,5-4.9,5c-1.3,0-2.6,0-3.9,0
	c-2.7,0-3.4-0.2-3.8-0.4c-0.1,0-0.1-0.1-0.2-0.2C385.9,148.6,386.6,146.9,386.1,146.5z"/>
<path class="st0" d="M127.5,151.8c-5-0.1-9.9-1.3-14.3-3.6c-3.3-1.8-3.7-3.9-1.2-6.8c3.9-4.4,4.2-4.5,9.6-1.7
	c2.4,1.3,5.2,1.7,7.9,1.2c2.1-0.4,3.1-1.4,3.3-3s-0.5-2.8-2.6-3.6c-2.1-0.8-4-1.2-6-1.9c-1.7-0.5-3.5-1-5.1-1.7
	c-4.4-1.9-7.2-5-7.6-10c-0.6-4.8,1.6-9.6,5.6-12.2c3.3-2.2,7.3-3.5,11.3-3.7c4.5-0.3,9.1,0.6,13.2,2.4c0.8,0.3,1.6,0.8,2.3,1.4
	c1.4,1.1,1.8,3.1,0.8,4.6c-0.6,1-1.3,2-2.2,2.9c-2.1,2.2-3.2,2.4-5.9,1c-2.1-1.2-4.5-1.8-6.9-1.7c-0.3,0-0.6,0-0.9,0.1
	c-2.4,0.3-3.8,1.4-3.9,3s0.7,2.5,3.2,3.3c1.9,0.6,3.9,1,5.8,1.6c1.9,0.6,3.8,1.2,5.6,2.1c10.4,4.9,8.8,18.3,1.1,22.9
	C136.6,150.9,132.2,151.7,127.5,151.8z"/>
<path class="st0" d="M248.1,151.2c-2.1,0.1-4.3,0-6.4-0.1c-1,0.1-1.9-0.6-2-1.6c0-0.2,0-0.3,0-0.5c0-1.3-0.1-2.6-0.1-3.9
	c0-10.4,0-20.9,0-31.3c0-1.5,0.1-3,0.2-4.5c0-0.8,0.3-1.5,0.8-2.1c0.6-0.5,1.3-0.7,2.1-0.7c3.8-0.2,6-0.1,7.5-0.1
	c2.5,0,3-0.1,3.6,0.5c1.1,1,0.8,2.8,1.6,3.1c0.5,0.1,1-0.4,1.6-0.9c1.6-1.3,3.5-2.3,5.5-3c1.4-0.4,3-0.6,4.5-0.5
	c0.7-0.1,1.3,0.1,1.9,0.5c0.6,0.6,0.9,1.4,0.8,2.3c0.1,5.4,0.2,8.1-0.7,8.9c-1.2,1-2-0.1-5,0.7c-1.8,0.5-3.5,1.4-4.8,2.8
	c-1.4,1.5-2.3,3.5-2.7,5.5c-0.3,1.4-0.4,2.9-0.4,4.4c0,4.9,0.1,7.3,0.2,18.4c0,0.2,0,0.5-0.1,0.7l0,0c-0.2,0.4-0.5,0.8-0.9,1.1
	C254.5,151.4,250.4,151.1,248.1,151.2z"/>
<path class="st1" d="M244.3,0L244.3,0c5.7,0,10.2,4.6,10.2,10.2l0,0c0,5.7-4.6,10.2-10.2,10.2l0,0c-5.7,0-10.2-4.6-10.2-10.2l0,0
	C234,4.6,238.6,0,244.3,0z"/>
<path class="st2" d="M273.6,37.1c0.9,0,1.9,0.1,2.8,0.3c1.4,0.2,2.6,1.1,3.2,2.4c0.7,1.5,0.9,3.2,0.4,4.8
	c-1.8,7.8-3.5,15.7-5.3,23.5c-1.3,5.8-2.6,11.5-4,17.3c-0.2,0.8-0.4,1.6-0.6,2.5c-0.4,1.5-1.3,2.8-2.4,3.8c-1.3,1.3-2.9,2.1-4.7,2.5
	c-0.6,0.1-1.3,0.1-1.9,0.1L249,94c-2.1,0-4.2-0.1-6.2-0.1c-4.9,0.1-9.8,0.2-14.7,0.2c-0.8,0-1.6,0-2.4-0.1c-2.1-0.4-4-1.5-5.3-3.1
	c-1.1-1.2-1.8-2.7-2.1-4.3c-0.2-1.1-0.4-1.6-0.6-2.6c-0.4-2.5-2.3-10.6-6.2-26.8c-0.8-3.4-1.5-6.8-2.3-10.2
	c-0.2-1.1-0.4-2.2-0.7-3.3c-0.3-1.6,0-3.3,0.9-4.6c0.2-0.4,0.6-0.7,0.9-1c0.6-0.4,1.2-0.7,1.9-0.8C216.3,36.6,271.2,37.2,273.6,37.1
	z"/>
<path class="st1" d="M236.4,28.3c-4.5-4.9-11.3-7-17.8-5.6l0,0c-3.4,9.7,1.6,20.3,11.3,23.8c3.3,1.2,6.9,1.4,10.4,0.6l0,0
	C242.5,40.6,241.1,33.4,236.4,28.3z"/>
<path class="st1" d="M248.3,47.3c-3.5-9.7,1.6-20.3,11.3-23.8c3.4-1.2,7-1.4,10.4-0.6"/>
<path class="st1" d="M270,22.9c3.4,9.7-1.6,20.3-11.3,23.8c-3.3,1.2-6.9,1.4-10.4,0.6"/>
</svg>
